<svg width="30" height="29" viewBox="0 0 30 29" fill="none" xmlns="http://www.w3.org/2000/svg">
<path fill-rule="evenodd" clip-rule="evenodd" d="M11.1702 25.625C10.9939 25.625 10.851 25.7649 10.851 25.9375C10.851 26.1101 10.9939 26.25 11.1702 26.25C11.3464 26.25 11.4893 26.1101 11.4893 25.9375C11.4893 25.7649 11.3464 25.625 11.1702 25.625ZM8.93611 25.9375C8.93611 24.7294 9.93632 23.75 11.1702 23.75C12.404 23.75 13.4042 24.7294 13.4042 25.9375C13.4042 27.1456 12.404 28.125 11.1702 28.125C9.93632 28.125 8.93611 27.1456 8.93611 25.9375Z" fill="#1E2E36"/>
<path fill-rule="evenodd" clip-rule="evenodd" d="M25.2128 25.625C25.0365 25.625 24.8936 25.7649 24.8936 25.9375C24.8936 26.1101 25.0365 26.25 25.2128 26.25C25.3891 26.25 25.5319 26.1101 25.5319 25.9375C25.5319 25.7649 25.3891 25.625 25.2128 25.625ZM22.9787 25.9375C22.9787 24.7294 23.9789 23.75 25.2128 23.75C26.4466 23.75 27.4468 24.7294 27.4468 25.9375C27.4468 27.1456 26.4466 28.125 25.2128 28.125C23.9789 28.125 22.9787 27.1456 22.9787 25.9375Z" fill="#1E2E36"/>
<path fill-rule="evenodd" clip-rule="evenodd" d="M0 0.9375C0 0.419733 0.428663 0 0.957447 0H6.06383C6.52017 0 6.9131 0.315361 7.00265 0.753509L8.12618 6.25H29.0425C29.3279 6.25 29.5984 6.37463 29.7803 6.5899C29.9622 6.80518 30.0365 7.08866 29.983 7.36313L27.9392 17.8576C27.7786 18.649 27.3389 19.3598 26.6972 19.8656C26.0579 20.3695 25.2586 20.6381 24.4384 20.625H12.0468C11.2264 20.6381 10.4272 20.3695 9.78798 19.8656C9.14646 19.36 8.70693 18.6496 8.54623 17.8588L6.41177 7.4166C6.40432 7.38756 6.39826 7.35799 6.39365 7.32794L5.27903 1.875H0.957447C0.428663 1.875 0 1.45526 0 0.9375ZM8.50944 8.125L10.4242 17.4924C10.4972 17.852 10.697 18.1751 10.9887 18.4051C11.2805 18.635 11.6455 18.7573 12.02 18.7501L12.0383 18.75H24.4468L24.4652 18.7501C24.8396 18.7573 25.2046 18.635 25.4964 18.4051C25.7872 18.1758 25.9868 17.8539 26.0603 17.4954L26.0609 17.4924L27.8853 8.125H8.50944Z" fill="#1E2E36"/>
</svg>
